<svg width="199" height="176" viewBox="0 0 199 176" fill="none" xmlns="http://www.w3.org/2000/svg">
<g opacity="0.2">
<path d="M72.7179 3.1561L126.373 51.5342H72.2301L18.5757 3.1561H72.7179Z" fill="#10BAAC"/>
<path d="M72.7185 3.15607H57.1836L110.838 51.5338H126.373L72.7185 3.15607Z" fill="#10BAAC"/>
<path d="M126.129 3.1561L72.4746 51.5342H126.617L180.272 3.1561H126.129Z" fill="#10BAAC"/>
<path d="M164.736 3.15607L111.082 51.5338H126.616L180.271 3.15607H164.736Z" fill="#10BAAC"/>
<mask id="mask0_1_4323" style="mask-type:luminance" maskUnits="userSpaceOnUse" x="0" y="0" width="199" height="176">
<path d="M0 0.599915H198.847V175.093H0V0.599915Z" fill="white"/>
</mask>
<g mask="url(#mask0_1_4323)">
<path d="M181.42 100.579C181.42 140.32 144.709 172.537 99.4236 172.537C54.1382 172.537 17.4272 140.32 17.4272 100.579C17.4272 60.8369 54.1382 28.6198 99.4236 28.6198C144.709 28.6198 181.42 60.8369 181.42 100.579Z" fill="#FAF7F7"/>
<path d="M99.4237 155.661C64.8142 155.661 36.6572 130.951 36.6572 100.578C36.6572 70.2061 64.8142 45.4963 99.4237 45.4963C134.033 45.4963 162.19 70.2061 162.19 100.578C162.19 130.951 134.033 155.661 99.4237 155.661Z" fill="#10BAAC"/>
<path d="M99.4232 45.4963C96.7935 45.4963 94.2012 45.6391 91.6558 45.9159C122.614 49.284 146.654 72.5137 146.654 100.578C146.654 128.643 122.614 151.873 91.6558 155.241C94.2326 155.521 96.8267 155.661 99.4232 155.661C134.032 155.661 162.189 130.951 162.189 100.578C162.189 70.2061 134.032 45.4963 99.4232 45.4963Z" fill="#10BAAC"/>
<path d="M99.5771 133.378C103.326 133.378 103.332 128.265 99.5771 128.265C95.829 128.265 95.8227 133.378 99.5771 133.378Z" fill="#10BAAC"/>
<path d="M99.5843 39.3399C103.332 39.3399 103.339 34.2278 99.5843 34.2278C95.8357 34.2278 95.8295 39.3399 99.5843 39.3399Z" fill="#10BAAC"/>
<path d="M63.2155 47.8165C66.964 47.8165 66.9703 42.7044 63.2155 42.7044C59.4669 42.7044 59.4611 47.8165 63.2155 47.8165Z" fill="#10BAAC"/>
<path d="M36.5486 71.1153C40.2972 71.1153 40.303 66.0032 36.5486 66.0032C32.8001 66.0032 32.7938 71.1153 36.5486 71.1153Z" fill="#10BAAC"/>
<path d="M26.7293 102.994C30.4779 102.994 30.4837 97.8819 26.7293 97.8819C22.9807 97.8819 22.9745 102.994 26.7293 102.994Z" fill="#10BAAC"/>
<path d="M36.3883 134.911C40.1369 134.911 40.1431 129.798 36.3883 129.798C32.6397 129.798 32.6339 134.911 36.3883 134.911Z" fill="#10BAAC"/>
<path d="M62.9373 158.312C66.6855 158.312 66.6917 153.2 62.9373 153.2C59.1887 153.2 59.1825 158.312 62.9373 158.312Z" fill="#10BAAC"/>
<path d="M99.2632 166.929C103.012 166.929 103.018 161.817 99.2632 161.817C95.515 161.817 95.5088 166.929 99.2632 166.929Z" fill="#10BAAC"/>
<path d="M135.632 158.453C139.38 158.453 139.386 153.341 135.632 153.341C131.883 153.341 131.877 158.453 135.632 158.453Z" fill="#10BAAC"/>
<path d="M162.298 135.154C166.047 135.154 166.053 130.042 162.298 130.042C158.55 130.042 158.544 135.154 162.298 135.154Z" fill="#10BAAC"/>
<path d="M172.117 103.275C175.866 103.275 175.872 98.1629 172.117 98.1629C168.369 98.1629 168.363 103.275 172.117 103.275Z" fill="#10BAAC"/>
<path d="M162.458 71.359C166.206 71.359 166.213 66.2469 162.458 66.2469C158.709 66.2469 158.703 71.359 162.458 71.359Z" fill="#10BAAC"/>
<path d="M135.909 47.9572C139.657 47.9572 139.664 42.8451 135.909 42.8451C132.161 42.8451 132.154 47.9572 135.909 47.9572Z" fill="#10BAAC"/>
</g>
</g>
</svg>
