<svg width="119" height="119" viewBox="0 0 119 119" fill="none" xmlns="http://www.w3.org/2000/svg">
<g opacity="0.2" clip-path="url(#clip0_1_4301)">
<path d="M89.3952 52.7849C95.9801 52.7849 102.164 54.5352 107.506 57.5937V3.67568C107.506 1.75217 105.947 0.192749 104.024 0.192749H31.1143C29.1908 0.192749 27.6313 1.75217 27.6313 3.67568V94.4649C27.6313 96.3884 29.1908 97.9478 31.1143 97.9478H53.8466C48.1051 75.4179 66.0887 52.4692 89.3952 52.7849ZM45.0467 11.5705H90.0911C94.7123 11.7547 94.7088 18.3541 90.0911 18.5364H45.0467C40.4255 18.3523 40.429 11.7528 45.0467 11.5705ZM45.0467 25.5022H90.0911C94.7123 25.6864 94.7088 32.2858 90.0911 32.4681H45.0467C40.4255 32.284 40.429 25.6845 45.0467 25.5022ZM45.0467 39.434H90.0911C94.7123 39.6181 94.7088 46.2175 90.0911 46.3998H45.0467C40.4255 46.2157 40.429 39.6162 45.0467 39.434ZM41.5638 56.8486C41.5638 54.9251 43.1232 53.3657 45.0467 53.3657H56.1291C60.7503 53.5498 60.7468 60.1492 56.1291 60.3315H45.0467C43.1232 60.3315 41.5638 58.7721 41.5638 56.8486Z" fill="white"/>
<path d="M89.3951 59.7508C73.0709 59.7508 59.7902 73.0314 59.7902 89.3557C61.4165 128.631 117.38 128.619 119 89.3555C119 73.0314 105.719 59.7508 89.3951 59.7508ZM103.069 83.1433L89.843 100.042C89.526 100.447 89.1233 100.777 88.6637 101.008C88.2041 101.239 87.6991 101.365 87.185 101.377C86.6708 101.39 86.1603 101.288 85.69 101.08C85.2197 100.872 84.8015 100.562 84.4652 100.173L77.3563 91.9477C76.0985 90.4923 76.2584 88.2929 77.7138 87.0351C79.1699 85.7768 81.3686 85.9375 82.6264 87.3927L86.9668 92.4148L97.5837 78.8498C98.7693 77.3352 100.958 77.0679 102.473 78.2537C103.988 79.4396 104.255 81.6285 103.069 83.1433ZM0 32.0035H20.8976V74.7274H0V32.0035ZM10.4488 11.5703C4.68732 11.5703 0 16.2576 0 22.0191V25.0376H20.8976V22.0191C20.8976 16.2576 16.2102 11.5703 10.4488 11.5703ZM7.23357 96.2679C8.40546 99.1079 12.4923 99.1067 13.6635 96.2679L19.7366 81.6932H1.16098L7.23357 96.2679Z" fill="white"/>
</g>
<defs>
<clipPath id="clip0_1_4301">
<rect width="119" height="119" fill="white"/>
</clipPath>
</defs>
</svg>
