<svg width="100" height="101" viewBox="0 0 100 101" fill="none" xmlns="http://www.w3.org/2000/svg">
<g clip-path="url(#clip0_1_4306)">
<path d="M9.56055 52.045V41.1135C9.56055 39.2063 11.2017 37.7128 13.1004 37.8923L43.794 40.7916H56.2155L86.9091 37.8923C88.8079 37.713 90.449 39.2063 90.449 41.1135V52.045H9.56055Z" fill="white"/>
<path d="M86.9087 37.8923L84.0464 38.1626C85.1651 38.6667 85.9564 39.7897 85.9564 41.1135V52.045H90.4484V41.1135C90.4484 39.2063 88.8073 37.7128 86.9087 37.8923Z" fill="#BDD5F8"/>
<path d="M67.8268 73.3207L93.6841 76.0563C95.3522 76.2418 96.8851 75.1208 97.2144 73.475L97.215 73.4719C98.9665 64.7137 98.9663 55.6955 97.2144 46.9374C96.8853 45.2918 95.3526 44.1711 93.6847 44.3563L67.8264 47.0888L32.1385 47.2237L6.31553 44.3563C4.64765 44.1711 3.11491 45.2918 2.78582 46.9374L2.78543 46.9392C1.03376 55.6973 1.03376 64.7155 2.78543 73.4736L2.78563 73.475C3.11471 75.1208 4.64784 76.2416 6.31592 76.0561L32.1377 73.1853L67.8268 73.3207Z" fill="#ECF3FD"/>
<path d="M97.2142 46.9374C96.8852 45.2918 95.3524 44.1709 93.6845 44.3563L90.9312 44.6473C91.828 45.0717 92.5147 45.8997 92.7223 46.9374C94.4741 55.6954 94.4743 64.7137 92.7229 73.4718L92.7223 73.475C92.5149 74.5126 91.8284 75.3405 90.9317 75.7651L93.6839 76.0563C95.352 76.2416 96.885 75.1208 97.2142 73.475L97.2148 73.4718C98.9663 64.7137 98.9661 55.6954 97.2142 46.9374Z" fill="white"/>
<path d="M75.6708 88.5172L67.4376 74.2534L32.5762 74.2622L24.3385 88.5174C23.7864 89.4738 24.3335 90.6897 25.4153 90.9112L29.8988 91.8287L34.3857 91.2836L35.503 95.0641L38.5394 98.4884C39.272 99.3145 40.5987 99.1801 41.1508 98.2239L50.0049 82.8534L58.8589 98.2239C59.4111 99.1803 60.7377 99.3145 61.4703 98.4884L64.5067 95.0641L65.468 90.4831L70.1107 91.8287L74.5945 90.9112C75.6759 90.6895 76.2227 89.4734 75.6708 88.5172Z" fill="#DC6671"/>
<path d="M38.3751 95.2026C37.906 96.0151 36.8789 96.2314 36.1309 95.7725L38.5391 98.4884C39.2717 99.3145 40.5984 99.1801 41.1505 98.2239L50.0046 82.8534L47.2291 79.8321L38.3751 95.2026ZM65.166 91.9211L62.8055 92.4041C62.4626 92.4743 62.1517 92.6538 61.9194 92.9156L58.2104 97.0984L58.8587 98.2237C59.4108 99.1801 60.7375 99.3143 61.4701 98.4882L64.5064 95.0639L65.166 91.9211ZM75.6709 88.5172L67.4377 74.2534L62.9463 74.2546L71.179 88.5172C71.7311 89.4736 71.184 90.6895 70.1022 90.911L68.2516 91.2897L70.1106 91.8285L74.5944 90.911C75.676 90.6895 76.2228 89.4734 75.6709 88.5172Z" fill="#FF9900"/>
<path d="M62.2769 78.2607H37.7318L29.8984 91.8286L32.7114 92.4041C33.0543 92.4743 33.3652 92.6538 33.5975 92.9156L35.5025 95.064L44.1558 80.0758H55.8526L64.5059 95.064L66.4109 92.9156C66.6431 92.6537 66.9541 92.4742 67.297 92.4041L70.11 91.8286L62.2769 78.2607Z" fill="#ECF3FD"/>
<path d="M62.9531 92.3738L64.5062 95.0639L66.4112 92.9156C66.6434 92.6537 66.9543 92.4742 67.2973 92.4041L70.1102 91.8286L69.6356 91.0065L62.9531 92.3738Z" fill="white"/>
<path d="M72.6523 60.2055C72.6523 57.7314 71.4619 55.5358 69.6227 54.1591C69.0814 53.7539 68.6591 53.2104 68.4003 52.5856C68.1415 51.9609 68.0558 51.278 68.1521 50.6087C68.4792 48.3348 67.7683 45.9405 66.0188 44.1912C64.2695 42.4417 61.8751 41.731 59.6012 42.0579C58.9318 42.1542 58.2489 42.0685 57.6242 41.8097C56.9994 41.551 56.4559 41.1287 56.0507 40.5873C54.6742 38.7481 52.4785 37.5577 50.0044 37.5577C47.5303 37.5577 45.3347 38.7481 43.958 40.5873C43.5528 41.1287 43.0093 41.551 42.3846 41.8098C41.7598 42.0685 41.0769 42.1543 40.4076 42.0579C38.1337 41.7308 35.7394 42.4417 33.9899 44.1912C32.2406 45.9405 31.5297 48.3349 31.8566 50.6087C31.9529 51.278 31.8672 51.9609 31.6084 52.5857C31.3497 53.2104 30.9274 53.7539 30.386 54.1591C28.5468 55.5356 27.3564 57.7314 27.3564 60.2055C27.3564 62.6796 28.5468 64.8752 30.386 66.2518C30.9274 66.657 31.3497 67.2005 31.6085 67.8253C31.8673 68.45 31.953 69.1329 31.8566 69.8023C31.5295 72.0762 32.2404 74.4704 33.9899 76.2199C35.7394 77.9694 38.1337 78.6801 40.4076 78.3532C41.0769 78.2569 41.7598 78.3426 42.3845 78.6014C43.0093 78.8602 43.5528 79.2825 43.958 79.8238C45.3345 81.663 47.5303 82.8534 50.0044 82.8534C52.4785 82.8534 54.6741 81.663 56.0507 79.8238C56.4559 79.2824 56.9994 78.8601 57.6242 78.6014C58.2489 78.3426 58.9318 78.2569 59.6012 78.3532C61.8751 78.6803 64.2693 77.9694 66.0188 76.2199C67.7683 74.4706 68.479 72.0762 68.1521 69.8023C68.0558 69.1329 68.1415 68.45 68.4003 67.8253C68.6591 67.2005 69.0813 66.657 69.6227 66.2518C71.4619 64.8752 72.6523 62.6796 72.6523 60.2055Z" fill="white"/>
<path d="M69.6225 54.1591C69.0811 53.7539 68.6588 53.2104 68.4 52.5857C68.1413 51.9609 68.0555 51.278 68.1518 50.6087C68.479 48.3348 67.7681 45.9405 66.0187 44.191C64.2692 42.4417 61.875 41.7308 59.6011 42.0577C58.9318 42.1541 58.2488 42.0683 57.6241 41.8096C56.9993 41.5508 56.4558 41.1285 56.0507 40.5871C54.674 38.7479 52.4784 37.5576 50.0043 37.5576C49.2219 37.5576 48.4678 37.6773 47.7583 37.8982C49.2764 38.3725 50.6062 39.3134 51.5587 40.5871C51.9639 41.1285 52.5074 41.5507 53.1321 41.8095C53.7569 42.0683 54.4398 42.154 55.1091 42.0577C57.383 41.7306 59.7772 42.4415 61.5268 44.191C63.2761 45.9405 63.987 48.3348 63.6601 50.6087C63.5638 51.278 63.6495 51.9609 63.9083 52.5857C64.167 53.2104 64.5893 53.7539 65.1307 54.1591C66.9699 55.5356 68.1602 57.7314 68.1602 60.2055C68.1602 62.6796 66.9699 64.8752 65.1307 66.2519C64.5893 66.657 64.167 67.2005 63.9082 67.8253C63.6494 68.45 63.5637 69.1329 63.6601 69.8023C63.9872 72.0762 63.2763 74.4704 61.5268 76.2199C59.7774 77.9694 57.383 78.6802 55.1091 78.3532C54.4398 78.2569 53.7569 78.3426 53.1321 78.6014C52.5074 78.8602 51.9639 79.2824 51.5587 79.8238C50.6062 81.0975 49.2764 82.0385 47.7583 82.5128C48.4855 82.739 49.2427 82.8539 50.0043 82.8534C52.4784 82.8534 54.674 81.663 56.0507 79.8238C56.4558 79.2824 56.9993 78.8601 57.6241 78.6014C58.2488 78.3426 58.9318 78.2569 59.6011 78.3532C61.875 78.6804 64.2692 77.9694 66.0187 76.2199C67.7683 74.4706 68.479 72.0762 68.1518 69.8023C68.0555 69.1329 68.1413 68.45 68.4 67.8253C68.6588 67.2006 69.0811 66.657 69.6225 66.2519C71.4616 64.8754 72.652 62.6796 72.652 60.2055C72.652 57.7314 71.4616 55.5358 69.6225 54.1591Z" fill="#10BAAC"/>
<path d="M59.1444 69.3551C64.1986 64.3009 64.1986 56.1064 59.1444 51.0522C54.0901 45.998 45.8956 45.998 40.8414 51.0522C35.7872 56.1064 35.7872 64.3009 40.8414 69.3551C45.8956 74.4094 54.0901 74.4094 59.1444 69.3551Z" fill="#FAEF6C"/>
<path d="M56.3013 61.6515C57.1337 58.176 54.9911 54.6837 51.5156 53.8513C48.0401 53.0188 44.5478 55.1614 43.7153 58.6369C42.8829 62.1124 45.0255 65.6047 48.501 66.4372C51.9765 67.2697 55.4688 65.1271 56.3013 61.6515Z" fill="white"/>
<path d="M50.409 61.6695H49.6C49.2115 61.6695 48.839 61.5151 48.5643 61.2405C48.2896 60.9658 48.1353 60.5932 48.1353 60.2047C48.1353 59.8162 48.2896 59.4436 48.5643 59.1689C48.839 58.8943 49.2115 58.7399 49.6 58.7399H50.409C50.7975 58.7399 51.17 58.8943 51.4447 59.1689C51.7194 59.4436 51.8737 59.8162 51.8737 60.2047C51.8737 60.5932 51.7194 60.9658 51.4447 61.2405C51.17 61.5151 50.7975 61.6695 50.409 61.6695Z" fill="#E0E0E0"/>
<path d="M50.0043 53.7335C49.2145 53.7335 48.4581 53.8755 47.7583 54.1345C50.225 55.0475 51.9833 57.4204 51.9833 60.2045C51.9833 62.9885 50.225 65.3615 47.7583 66.2747C48.4772 66.5406 49.2378 66.6764 50.0043 66.6757C53.5781 66.6757 56.4753 63.7785 56.4753 60.2047C56.4753 56.6308 53.5781 53.7335 50.0043 53.7335Z" fill="#10BAAC"/>
<path d="M64.5645 21.2277L75.7982 16.235C77.0792 15.6656 77.0792 13.8476 75.7982 13.2783L50.6617 2.10654C50.4549 2.01461 50.231 1.9671 50.0047 1.9671C49.7784 1.9671 49.5545 2.01461 49.3477 2.10654L24.2112 13.2783C22.9302 13.8476 22.9302 15.6656 24.2112 16.235L35.4449 21.2277H64.5645Z" fill="#E0E0E0"/>
<path d="M75.7978 13.2783L50.6613 2.10654C50.4545 2.01461 50.2306 1.9671 50.0043 1.9671C49.7779 1.9671 49.5541 2.01461 49.3473 2.10654L47.7583 2.81276L71.3058 13.2783C72.5868 13.8476 72.5868 15.6656 71.3058 16.235L60.0722 21.2277H64.5641L75.7978 16.235C77.0787 15.6656 77.0787 13.8476 75.7978 13.2783Z" fill="white"/>
<path d="M64.5645 24.6158V16.4717C64.5645 16.0573 64.3999 15.6599 64.1069 15.3669C63.8139 15.0739 63.4165 14.9092 63.0021 14.9092H37.0072C36.5929 14.9092 36.1955 15.0739 35.9024 15.3669C35.6094 15.6599 35.4448 16.0573 35.4448 16.4717V24.6158L50.0047 27.8514L64.5645 24.6158Z" fill="white"/>
<path d="M60.0126 16.4717V25.6273L64.5643 24.6158V16.4717C64.5643 16.0573 64.3997 15.6599 64.1067 15.3669C63.8137 15.0739 63.4163 14.9092 63.0019 14.9092H58.4502C58.8646 14.9092 59.262 15.0739 59.555 15.3669C59.848 15.6599 60.0126 16.0573 60.0126 16.4717Z" fill="#425768"/>
<path d="M38.5697 31.0868H61.4396C63.1655 31.0868 64.5645 29.6879 64.5645 27.962V24.6158H35.4448V27.962C35.4448 29.6879 36.8438 31.0868 38.5697 31.0868Z" fill="#82B7F9"/>
<path d="M64.5643 27.962V24.6158H60.0125V27.962C60.0125 29.6879 58.6136 31.0868 56.8877 31.0868H61.4394C63.1653 31.0868 64.5643 29.6879 64.5643 27.962Z" fill="#66A4F7"/>
<path d="M27.3559 26.1878C27.3559 24.3491 25.822 22.8685 23.9639 22.956C22.2238 23.038 20.8848 24.5369 20.8848 26.2792V29.4691C20.8848 29.8982 21.0552 30.3096 21.3586 30.613C21.662 30.9164 22.0734 31.0868 22.5025 31.0868H25.738C26.1671 31.0868 26.5786 30.9164 26.8819 30.613C27.1853 30.3096 27.3557 29.8982 27.3557 29.4691V26.1878H27.3559Z" fill="white"/>
<path d="M23.9641 22.9561C23.1534 22.9942 22.4323 23.3425 21.8907 23.877C22.1991 24.1777 22.4441 24.5371 22.6113 24.934C22.7785 25.3309 22.8645 25.7573 22.8641 26.188V29.4693C22.8641 30.14 22.4559 30.7153 21.8745 30.9604C22.0734 31.0442 22.287 31.0872 22.5028 31.087H25.7384C25.9508 31.087 26.1612 31.0452 26.3575 30.9639C26.5538 30.8826 26.7321 30.7635 26.8823 30.6132C27.0325 30.463 27.1517 30.2847 27.233 30.0884C27.3143 29.8921 27.3561 29.6817 27.3561 29.4693V26.188C27.3559 24.349 25.822 22.8686 23.9641 22.9561Z" fill="#10BAAC"/>
<path d="M50.0046 74.6114C57.9485 74.6114 64.4115 68.1485 64.4115 60.2045C64.4115 52.2606 57.9485 45.7976 50.0046 45.7976C42.0606 45.7976 35.5977 52.2606 35.5977 60.2045C35.5977 68.1485 42.0606 74.6114 50.0046 74.6114ZM50.0046 48.7273C56.3332 48.7273 61.4819 53.8759 61.4819 60.2047C61.4819 66.5335 56.3332 71.6821 50.0046 71.6821C43.676 71.6821 38.5272 66.5335 38.5272 60.2047C38.5272 53.8759 43.676 48.7273 50.0046 48.7273Z" fill="black"/>
<path d="M50.0046 68.1404C54.3806 68.1404 57.9403 64.5805 57.9403 60.2045C57.9403 55.8287 54.3804 52.2686 50.0046 52.2686C45.6288 52.2686 42.0688 55.8287 42.0688 60.2045C42.0687 64.5805 45.6286 68.1404 50.0046 68.1404ZM50.0046 55.1983C52.765 55.1983 55.0108 57.4441 55.0108 60.2047C55.0108 62.9653 52.765 65.2111 50.0046 65.2111C47.2442 65.2111 44.9984 62.9653 44.9984 60.2047C44.9982 57.4441 47.244 55.1983 50.0046 55.1983Z" fill="black"/>
<path d="M49.6 61.6695H50.409C50.7975 61.6695 51.17 61.5151 51.4447 61.2405C51.7194 60.9658 51.8737 60.5932 51.8737 60.2047C51.8737 59.8162 51.7194 59.4436 51.4447 59.1689C51.17 58.8943 50.7975 58.7399 50.409 58.7399H49.6C49.2115 58.7399 48.839 58.8943 48.5643 59.1689C48.2896 59.4436 48.1353 59.8162 48.1353 60.2047C48.1353 60.5932 48.2896 60.9658 48.5643 61.2405C48.839 61.5151 49.2115 61.6695 49.6 61.6695Z" fill="black"/>
<path d="M98.6506 46.6501C98.1687 44.2412 95.9644 42.6286 93.5305 42.8997L91.9132 43.0706V41.1133C91.9126 40.4588 91.7756 39.8117 91.511 39.2132C91.2464 38.6146 90.86 38.0778 90.3764 37.6369C89.8921 37.1967 89.3213 36.8623 88.7006 36.6552C88.0798 36.448 87.4226 36.3726 86.7711 36.4338L56.8612 39.2591C55.1581 37.2675 52.6368 36.093 50.0045 36.093C47.3304 36.093 44.8626 37.2402 43.1464 39.2589L13.2379 36.434C11.923 36.3086 10.6091 36.7482 9.63244 37.6371C8.65573 38.5259 8.0956 39.793 8.0956 41.1135V43.0804L6.47713 42.9007C4.03779 42.6273 1.8377 44.2369 1.35159 46.6399L1.34906 46.6522C-0.449685 55.6463 -0.449685 64.7672 1.34906 73.7613L1.35042 73.7681C1.79884 75.9971 3.72218 77.5422 5.94297 77.5422C6.11933 77.5422 6.29803 77.5324 6.47771 77.5125L11.3347 76.9725C11.5264 76.9518 11.7121 76.8935 11.8812 76.8009C12.0502 76.7084 12.1994 76.5833 12.3201 76.433C12.4407 76.2826 12.5305 76.1099 12.5843 75.9248C12.6381 75.7397 12.6548 75.5458 12.6335 75.3542C12.6122 75.1626 12.5533 74.9771 12.4601 74.8083C12.367 74.6396 12.2414 74.4908 12.0907 74.3707C11.94 74.2505 11.767 74.1613 11.5817 74.1081C11.3964 74.055 11.2024 74.0389 11.0109 74.0609L6.1539 74.6009C5.23344 74.7017 4.4034 74.0956 4.22196 73.1883C4.22162 73.1862 4.22116 73.1841 4.22059 73.182C2.49958 64.5732 2.49939 55.8442 4.22001 47.2352L4.22216 47.2251C4.40359 46.3177 5.23324 45.7119 6.1539 45.8124L30.3717 48.5018C30.2851 49.2721 30.2969 50.0503 30.407 50.8177C30.466 51.2266 30.4137 51.6439 30.2556 52.0257C30.0974 52.4074 29.8393 52.7395 29.5084 52.9869C27.2101 54.7073 25.8918 57.3385 25.8918 60.2059C25.8918 63.0735 27.2099 65.7046 29.5082 67.4247C29.8391 67.6722 30.0971 68.0042 30.2553 68.386C30.4134 68.7677 30.4657 69.185 30.4068 69.5939C30.2968 70.3608 30.2848 71.1385 30.3713 71.9084L16.8524 73.4113C16.6607 73.432 16.475 73.4902 16.3059 73.5828C16.1369 73.6754 15.9877 73.8004 15.867 73.9508C15.7464 74.1011 15.6566 74.2738 15.6028 74.4589C15.549 74.644 15.5323 74.8379 15.5536 75.0295C15.5749 75.2211 15.6338 75.4066 15.727 75.5754C15.8201 75.7442 15.9457 75.8929 16.0964 76.0131C16.2471 76.1332 16.4201 76.2224 16.6054 76.2756C16.7907 76.3288 16.9847 76.3448 17.1762 76.3229L30.5527 74.8358L23.0697 87.7848C22.5758 88.6406 22.5228 89.6894 22.9281 90.5905C23.3333 91.4917 24.1532 92.1481 25.1213 92.3461L32.4179 93.8392C32.4507 93.8458 32.4794 93.8626 32.5018 93.8876L37.4432 99.46C37.7676 99.825 38.174 100.108 38.6288 100.285C39.0837 100.463 39.5742 100.53 40.0601 100.482C40.5461 100.432 41.0133 100.268 41.4235 100.002C41.8337 99.7367 42.1751 99.3779 42.4197 98.955L50.0043 85.788L57.5899 98.9563C57.8608 99.4241 58.2498 99.8127 58.7179 100.083C59.186 100.354 59.7169 100.496 60.2575 100.497C60.6936 100.497 61.1247 100.405 61.5225 100.226C61.9203 100.047 62.2758 99.7861 62.5656 99.4602L67.5077 93.8871C67.5297 93.8626 67.5589 93.8458 67.5911 93.8392L74.8877 92.3461C75.8558 92.1479 76.6755 91.4917 77.0807 90.5905C77.486 89.6894 77.433 88.6404 76.9389 87.785L69.5451 74.9755L93.5219 77.5123C93.7016 77.5324 93.8799 77.542 94.0564 77.542C96.2788 77.542 98.2037 75.9942 98.6502 73.7623L98.6527 73.7492C100.45 64.7584 100.449 55.6409 98.6506 46.6501ZM87.0464 39.3505C87.292 39.3258 87.54 39.3534 87.7741 39.4316C88.0082 39.5097 88.2231 39.6365 88.4046 39.8038C88.5879 39.9689 88.7343 40.1709 88.8341 40.3966C88.9339 40.6223 88.9849 40.8665 88.9836 41.1133V43.3801L68.7567 45.5175C68.3204 44.6435 67.7456 43.8457 67.0546 43.1552C66.368 42.4681 65.5753 41.8959 64.7069 41.4605L87.0464 39.3505ZM11.0251 43.4055V41.1135C11.0239 40.8667 11.0749 40.6225 11.1746 40.3968C11.2744 40.1712 11.4207 39.9691 11.604 39.804C11.7857 39.6369 12.0006 39.5101 12.2347 39.432C12.4688 39.3539 12.7168 39.3262 12.9624 39.3507L35.3021 41.4609C34.4337 41.8963 33.641 42.4686 32.9543 43.1557C32.229 43.8796 31.6319 44.7212 31.1882 45.6449L11.0251 43.4055ZM28.8215 60.2055C28.8215 58.27 29.7117 56.4936 31.2638 55.3319C32.0161 54.7692 32.6028 54.0143 32.9623 53.1464C33.3218 52.2785 33.4408 51.3297 33.3067 50.3999C33.0307 48.4811 33.6572 46.5954 35.0257 45.2269C36.3942 43.8584 38.2795 43.2311 40.1991 43.5079C41.1288 43.6418 42.0775 43.5228 42.9453 43.1633C43.8131 42.8038 44.568 42.2172 45.1307 41.465C46.2926 39.9129 48.0688 39.0225 50.0043 39.0225C51.9399 39.0225 53.7162 39.9129 54.8781 41.465C55.4408 42.2171 56.1958 42.8037 57.0636 43.1632C57.9315 43.5227 58.8801 43.6417 59.8099 43.5079C61.7293 43.2311 63.6146 43.8584 64.9829 45.2269C66.3515 46.5954 66.9783 48.4811 66.7021 50.3999C66.568 51.3297 66.687 52.2784 67.0465 53.1463C67.406 54.0142 67.9927 54.7691 68.745 55.3317C70.2971 56.4936 71.1874 58.27 71.1874 60.2055C71.1874 62.1409 70.2971 63.9174 68.745 65.0791C67.9928 65.6418 67.4061 66.3967 67.0466 67.2646C66.6871 68.1324 66.5681 69.0811 66.7021 70.0109C66.8832 71.2688 66.6738 72.5115 66.1242 73.6044L66.1193 73.6144C65.8264 74.1947 65.4428 74.7246 64.9829 75.1841C64.1513 76.0157 63.1281 76.5717 62.0229 76.8193C61.9804 76.8268 61.9383 76.8361 61.8967 76.8473C61.2093 76.9853 60.5033 77.0041 59.8095 76.9029C58.8797 76.769 57.9311 76.888 57.0632 77.2475C56.1954 77.607 55.4404 78.1936 54.8777 78.9458C53.7162 80.4979 51.9398 81.3883 50.0041 81.3883C48.0686 81.3883 46.2924 80.4979 45.1305 78.9458C44.5678 78.1936 43.8129 77.6069 42.945 77.2474C42.0772 76.8879 41.1285 76.7689 40.1987 76.9029C39.4898 77.0051 38.7859 76.983 38.1105 76.8469C38.0696 76.8358 38.0283 76.8266 37.9865 76.8193C36.8809 76.5719 35.8573 76.0157 35.0253 75.1837C34.5681 74.7268 34.1862 74.2002 33.894 73.6236L33.8889 73.6134C33.3358 72.5182 33.125 71.2721 33.3065 70.0105C33.4405 69.0807 33.3215 68.132 32.962 67.2642C32.6025 66.3963 32.0158 65.6414 31.2636 65.0787C29.7117 63.9174 28.8215 62.1411 28.8215 60.2055ZM25.5998 89.3888C25.5891 89.367 25.584 89.3428 25.5852 89.3186C25.5863 89.2943 25.5937 89.2707 25.6065 89.25L32.696 76.9818C32.7809 77.0738 32.8651 77.1662 32.9543 77.2554C33.7104 78.0137 34.5951 78.6317 35.5671 79.0807L29.1579 90.182L25.7086 89.4761C25.6897 89.4722 25.6319 89.4603 25.5998 89.3888ZM32.1833 90.8009L38.4988 79.862C39.1941 79.9239 39.9036 79.9057 40.6161 79.8032C40.9222 79.759 41.2341 79.7771 41.533 79.8564C41.832 79.9357 42.1118 80.0745 42.3558 80.2645L35.2501 92.5719L34.6935 91.9442C34.2501 91.4462 33.658 91.1043 33.0049 90.9692L32.1833 90.8009ZM39.8819 97.4914C39.8705 97.5129 39.8538 97.5312 39.8333 97.5445C39.8128 97.5577 39.7893 97.5655 39.7649 97.5671C39.6866 97.5775 39.648 97.531 39.6351 97.5166L37.2993 94.8823L44.4862 82.4339C45.4244 83.1652 46.5002 83.7003 47.6495 84.0073L39.8819 97.4914ZM60.3739 97.5164C60.3584 97.5352 60.3383 97.5498 60.3156 97.5586C60.2928 97.5675 60.2682 97.5703 60.244 97.5669C60.1663 97.5591 60.1366 97.508 60.1276 97.4925L52.3546 83.9987C53.5017 83.6859 54.5765 83.1514 55.5181 82.4253L62.7099 94.8821L60.3739 97.5164ZM67.0037 90.969C66.3507 91.104 65.7587 91.4458 65.3153 91.9438L64.7585 92.5717L57.653 80.2645C57.897 80.0746 58.1768 79.9358 58.4757 79.8565C58.7746 79.7772 59.0864 79.759 59.3925 79.803C60.1052 79.9053 60.8147 79.9235 61.5098 79.8616L67.8255 90.8007L67.0037 90.969ZM74.4092 89.3888C74.3999 89.4114 74.3851 89.4313 74.366 89.4465C74.3469 89.4618 74.3243 89.4719 74.3002 89.4759L70.8509 90.1818L64.4417 79.0806C65.4138 78.6317 66.2984 78.0138 67.0544 77.2556C67.1455 77.1646 67.2316 77.0705 67.3181 76.9764L74.4021 89.2494C74.4119 89.2662 74.4412 89.3174 74.4092 89.3888ZM95.7784 73.1847L95.7763 73.1957C95.5917 74.0992 94.7603 74.7021 93.8379 74.5999L69.6221 72.0377C69.725 71.2258 69.7182 70.4038 69.6018 69.5937C69.5428 69.1848 69.5951 68.7675 69.7533 68.3858C69.9114 68.0041 70.1695 67.6721 70.5004 67.4247C72.7987 65.7044 74.117 63.0733 74.117 60.2057C74.117 57.3383 72.7989 54.7071 70.5004 52.9865C70.1695 52.7391 69.9114 52.4071 69.7533 52.0254C69.5951 51.6437 69.5428 51.2264 69.6018 50.8175C69.7205 49.9921 69.7231 49.1715 69.6219 48.3721L93.8459 45.8122C94.2866 45.7614 94.7301 45.8786 95.0882 46.1404C95.4463 46.4022 95.6925 46.7894 95.7776 47.2247C97.5008 55.8375 97.501 64.5717 95.7784 73.1847ZM22.5025 32.5518H25.7381C27.4378 32.5518 28.8206 31.1688 28.8206 29.4691V26.188C28.8193 25.5522 28.6897 24.9232 28.4395 24.3388C28.1892 23.7543 27.8236 23.2264 27.3644 22.7866C26.8586 22.3027 26.2506 21.9385 25.5852 21.721V18.4485L33.9799 22.1796V27.9621C33.9799 30.4929 36.0388 32.5518 38.5695 32.5518H61.4395C63.9702 32.5518 66.0291 30.4929 66.0291 27.9621V22.1796L76.3929 17.5734C77.5221 17.0717 78.2236 15.9922 78.2236 14.7565C78.2236 13.5209 77.5221 12.4414 76.3929 11.9397L51.2564 0.768161C50.8622 0.593202 50.4358 0.502808 50.0045 0.502808C49.5732 0.502808 49.1468 0.593202 48.7526 0.768161L34.4728 7.11473C34.1213 7.2747 33.8472 7.56704 33.7101 7.92812C33.5731 8.28921 33.5842 8.68981 33.741 9.04275C33.8978 9.39569 34.1877 9.67241 34.5476 9.81268C34.9074 9.95295 35.3081 9.94543 35.6624 9.79174L49.9424 3.44518C49.9619 3.43648 49.983 3.43199 50.0044 3.43199C50.0258 3.43199 50.0469 3.43648 50.0664 3.44518L75.2029 14.6169C75.2347 14.631 75.2939 14.6573 75.2939 14.7567C75.2939 14.8561 75.2347 14.8825 75.2029 14.8966L66.0289 18.9739V16.4717C66.0289 14.8024 64.671 13.4445 63.0017 13.4445H37.0069C35.3376 13.4445 33.9797 14.8024 33.9797 16.4717V18.9739L24.8063 14.8968L24.8049 14.896C24.7729 14.8817 24.7151 14.8552 24.7151 14.7567C24.7151 14.6573 24.7743 14.631 24.8059 14.6169L29.8035 12.3957C30.1551 12.2357 30.4292 11.9434 30.5662 11.5823C30.7033 11.2212 30.6922 10.8206 30.5354 10.4677C30.3785 10.1147 30.0886 9.83803 29.7288 9.69776C29.3689 9.55749 28.9683 9.56501 28.6139 9.7187L23.6163 11.9399C22.4871 12.4416 21.7858 13.5211 21.7858 14.7567C21.7858 15.5879 22.1043 16.3477 22.6558 16.9092V21.7238C20.768 22.3497 19.4202 24.1551 19.4202 26.2794V29.4691C19.42 31.1688 20.8028 32.5518 22.5025 32.5518ZM61.4395 29.6222H38.5695C37.6541 29.6222 36.9094 28.8773 36.9094 27.9621V26.0806H63.0996V27.9621C63.0996 28.8773 62.3549 29.6222 61.4395 29.6222ZM37.0071 16.374H63.0019C63.0556 16.374 63.0996 16.418 63.0996 16.4717V23.1511H36.9094V16.4717C36.9094 16.4458 36.9197 16.421 36.938 16.4026C36.9563 16.3843 36.9812 16.374 37.0071 16.374ZM22.3496 26.2794C22.3496 25.3609 23.0103 24.5719 23.8552 24.4377C23.9413 24.4535 24.0296 24.4629 24.1204 24.4629C24.2099 24.4629 24.2968 24.4535 24.3817 24.4383C24.7428 24.4904 25.0786 24.654 25.3422 24.9062C25.5163 25.0711 25.6549 25.2698 25.7493 25.4902C25.8436 25.7106 25.8919 25.948 25.891 26.1878V29.4689C25.891 29.5095 25.8749 29.5484 25.8462 29.5771C25.8176 29.6058 25.7787 29.622 25.7381 29.622H22.5025C22.4619 29.622 22.423 29.6058 22.3944 29.5771C22.3657 29.5484 22.3496 29.5095 22.3496 29.4689V26.2794Z" fill="black"/>
</g>
<defs>
<clipPath id="clip0_1_4306">
<rect width="100" height="100" fill="white" transform="translate(0 0.5)"/>
</clipPath>
</defs>
</svg>
