<svg width="100" height="101" viewBox="0 0 100 101" fill="none" xmlns="http://www.w3.org/2000/svg">
<path d="M41.3369 37.5024H6.51465C3.72559 37.5024 1.46484 35.2416 1.46484 32.4528V6.61466C1.46484 3.82579 3.72559 1.56485 6.51465 1.56485H41.3371C44.126 1.56485 46.3869 3.82559 46.3869 6.61466V32.4528C46.3867 35.2416 44.126 37.5024 41.3369 37.5024Z" fill="#F0E9E9"/>
<path d="M41.3369 1.56485H35.4775C38.2664 1.56485 40.5273 3.82559 40.5273 6.61446V32.4526C40.5273 35.2414 38.2664 37.5022 35.4775 37.5022H41.3369C44.1258 37.5022 46.3867 35.2414 46.3867 32.4526V6.61466C46.3867 3.82579 44.1258 1.56485 41.3369 1.56485Z" fill="#FFB904"/>
<path d="M93.4854 37.5024H58.6631C55.8742 37.5024 53.6133 35.2416 53.6133 32.4526V6.61466C53.6133 3.82579 55.874 1.56485 58.6631 1.56485H93.4856C96.2744 1.56485 98.5354 3.82559 98.5354 6.61466V32.4528C98.5352 35.2416 96.2744 37.5024 93.4854 37.5024Z" fill="#FFC42C"/>
<path d="M93.4854 1.56485H87.626C90.4148 1.56485 92.6758 3.82559 92.6758 6.61446V32.4526C92.6758 35.2414 90.4148 37.5022 87.626 37.5022H93.4854C96.2742 37.5022 98.5352 35.2414 98.5352 32.4526V6.61466C98.5352 3.82579 96.2742 1.56485 93.4854 1.56485Z" fill="white"/>
<path d="M76.6953 51.5641L74.9381 45.4991C74.211 42.9893 71.5867 41.5442 69.077 42.2713C66.5672 42.9985 65.1221 45.6227 65.8492 48.1325L65.1535 45.7313C64.4264 43.2215 61.8022 41.7764 59.2924 42.5036C56.8248 43.2186 55.3881 45.7671 56.0313 48.2378L55.5609 46.6147C54.8338 44.1049 52.2096 42.6598 49.6998 43.387C47.1951 44.1128 45.7512 46.7278 46.468 49.2329L41.8936 33.4454C41.1662 30.9352 38.5418 29.4901 36.0318 30.2174C33.5219 30.9448 32.0766 33.569 32.8039 36.0792L39.067 57.695C36.9953 59.4887 34.9002 61.3176 33.8869 62.2473C33.4831 62.6182 33.1925 63.0959 33.0488 63.625C32.9051 64.1541 32.9141 64.7131 33.0748 65.2374L35.5121 73.2073C36.4 76.1112 38.1913 78.6561 40.6254 80.4716C40.6254 80.4716 50.1436 89.1823 57.869 86.9438L73.7467 82.3433C79.7928 80.5915 83.2737 74.2663 81.5209 68.2173L76.6953 51.5641Z" fill="#FFCEBF"/>
<path d="M39.0671 57.695L41.4851 66.0399C41.4851 66.0399 37.497 66.9893 35.6634 60.6614L39.0671 57.695ZM57.2712 52.5147L55.5855 52.9991C53.8347 53.5958 51.9353 52.6333 51.3829 50.8677L50.5118 48.0862C50.0552 46.5104 48.8495 45.353 47.3942 44.8921L47.3937 44.8901C47.4028 44.8794 47.4118 44.8686 47.4204 44.8559L47.4218 44.8536C48.0206 44.1518 48.8126 43.6416 49.6991 43.3864C52.123 42.6841 54.6534 44.0067 55.4792 46.3581C56.0775 48.41 56.6749 50.4622 57.2712 52.5147ZM66.837 51.5407L65.1847 52.104C63.4335 52.7011 61.5345 51.7378 60.9816 49.9722L60.1111 47.1919C59.6544 45.6161 58.4487 44.4587 56.9935 43.9977L56.9929 43.9958C57.5942 43.2815 58.3944 42.7622 59.2917 42.5042L59.2937 42.5036C61.8019 41.7768 64.4265 43.2206 65.1538 45.7307L66.837 51.5407ZM36.8515 34.9065L41.4259 50.694C42.9735 56.0358 47.7802 54.3735 47.9489 54.344L41.8937 33.4456C41.1663 30.9354 38.5421 29.4903 36.0319 30.2176C35.134 30.4764 34.3334 30.9965 33.7319 31.7116C35.1882 32.1729 36.3946 33.3292 36.8515 34.9065ZM76.6958 51.5641L74.9386 45.4991C74.2114 42.9893 71.5872 41.5442 69.0773 42.2714C68.1794 42.5301 67.3788 43.0501 66.7775 43.7653C68.2333 44.2268 69.4394 45.3831 69.8964 46.96L76.479 69.6782C78.2318 75.7272 74.7509 82.0524 68.7048 83.8042L73.747 82.3433C79.7931 80.5915 83.274 74.2663 81.5212 68.2173L76.6958 51.5641Z" fill="#FFB09E"/>
<path d="M83.418 90.4239L55.4402 98.5304C54.042 98.9354 52.5801 98.1304 52.1748 96.7321L50.3016 90.2673C49.8965 88.869 50.7016 87.4071 52.0998 87.0018L80.0776 78.8954C81.4758 78.4903 82.9377 79.2954 83.343 80.6936L85.2162 87.1585C85.6213 88.5569 84.8162 90.0188 83.418 90.4239Z" fill="#218C75"/>
<path d="M80.0776 78.8956L74.4497 80.5262C75.848 80.1211 77.3101 80.9262 77.7151 82.3245L79.5884 88.7893C79.9935 90.1875 79.1884 91.6495 77.7901 92.0547L83.4181 90.4241C84.8163 90.019 85.6214 88.5569 85.2163 87.1586L83.3431 80.6938C82.9378 79.2954 81.4759 78.4903 80.0776 78.8956Z" fill="#218C75"/>
<path d="M93.4856 0.100006H58.6629C55.0709 0.100006 52.1484 3.02247 52.1484 6.61446V32.4524C52.1484 36.0444 55.0709 38.9668 58.6629 38.9668H93.4854C97.0776 38.9668 99.9998 36.0444 99.9998 32.4524V6.61446C100 3.02247 97.0776 0.100006 93.4856 0.100006ZM97.0703 32.4524C97.0703 34.4291 95.4621 36.0371 93.4856 36.0371H58.6629C56.6861 36.0371 55.0781 34.4291 55.0781 32.4524V6.61446C55.0781 4.6377 56.6863 3.0297 58.6629 3.0297H93.4854C95.4621 3.0297 97.0703 4.6377 97.0703 6.61446V32.4524Z" fill="white"/>
<path d="M84.7497 80.2852C84.5568 79.6123 84.1938 79.0005 83.6957 78.5087C83.1976 78.017 82.5812 77.6618 81.9059 77.4776C83.4991 74.5127 83.866 71.0413 82.9278 67.8088L81.7477 63.736C81.6955 63.5498 81.6068 63.3757 81.487 63.2239C81.3671 63.0722 81.2184 62.9456 81.0494 62.8516C80.8804 62.7576 80.6944 62.6979 80.5022 62.6762C80.3101 62.6544 80.1155 62.6709 79.9297 62.7247C79.7439 62.7785 79.5706 62.8686 79.4199 62.9897C79.2691 63.1109 79.1438 63.2607 79.0512 63.4305C78.9586 63.6003 78.9006 63.7868 78.8805 63.9791C78.8603 64.1715 78.8784 64.3659 78.9338 64.5512L80.1139 68.6241C81.036 71.8065 80.3168 75.2262 78.1901 77.7723C78.1433 77.8292 78.1008 77.8896 78.0631 77.953L52.2098 85.4438C52.1826 85.4348 52.1561 85.4251 52.1282 85.4176C46.6877 83.9792 41.6639 79.435 41.6145 79.3899C41.5784 79.3568 41.5406 79.3257 41.5012 79.2965C39.3022 77.6565 37.7156 75.4024 36.9129 72.778L34.4756 64.8081C34.3141 64.2797 34.4717 63.6979 34.8774 63.3258C35.5225 62.7338 36.6699 61.7194 38.2975 60.302L40.5989 68.2448C40.8215 69.029 41.6574 69.4694 42.4135 69.2442C42.7866 69.1361 43.1015 68.8841 43.2889 68.5438C43.4763 68.2035 43.5208 67.8027 43.4127 67.4295L40.474 57.2872L40.4739 57.2866L34.2108 35.6707C33.9678 34.8326 34.066 33.9502 34.4869 33.1858C34.9078 32.4213 35.6014 31.8666 36.4395 31.6239C37.2776 31.3811 38.1604 31.4791 38.9244 31.8998C39.301 32.1059 39.6329 32.3845 39.901 32.7197C40.1692 33.0548 40.3682 33.4398 40.4865 33.8524L45.061 49.6397L46.9491 56.1561C47.1717 56.9403 48.0076 57.3807 48.7637 57.1555C49.1368 57.0474 49.4517 56.7954 49.6391 56.4551C49.8265 56.1148 49.871 55.714 49.7629 55.3409L47.8762 48.8291C47.3823 47.1034 48.3832 45.2928 50.1074 44.7932C50.9455 44.5502 51.828 44.6483 52.5922 45.0692C53.3565 45.4901 53.9112 46.1832 54.1539 47.0213L54.6243 48.6444L56.2811 54.3629C56.5037 55.1471 57.3397 55.5875 58.0957 55.3623C58.4689 55.2542 58.7838 55.0023 58.9712 54.662C59.1586 54.3216 59.2031 53.9208 59.095 53.5477L57.4475 47.8618C57.0026 46.1401 57.9909 44.4047 59.6998 43.9096C60.1117 43.789 60.5434 43.7513 60.9699 43.7986C61.3964 43.846 61.8093 43.9775 62.1846 44.1856C62.5611 44.3916 62.893 44.6702 63.1611 45.0053C63.4292 45.3405 63.6282 45.7254 63.7465 46.1379L64.4395 48.5299L64.4422 48.5391L65.8618 53.4385C66.0844 54.2227 66.9203 54.6631 67.6764 54.4379C68.0495 54.3298 68.3644 54.0779 68.5518 53.7375C68.7392 53.3972 68.7838 52.9964 68.6756 52.6233L67.2561 47.7239L67.2545 47.718C66.7571 45.9897 67.7565 44.178 69.4844 43.6774C71.2149 43.1756 73.0299 44.1758 73.5311 45.9057L77.0311 57.9856C77.1417 58.3558 77.3942 58.6672 77.7334 58.8522C78.0726 59.0371 78.4711 59.0806 78.8422 58.9731C79.2133 58.8656 79.5269 58.6158 79.7147 58.2781C79.9025 57.9405 79.9493 57.5423 79.845 57.1704L76.345 45.0905C75.3942 41.809 71.951 39.9131 68.669 40.8633C67.3641 41.24 66.2201 42.037 65.4145 43.1305C64.9115 42.5149 64.2947 42.0019 63.5977 41.6196C62.1479 40.8211 60.4739 40.6352 58.8842 41.0955C57.417 41.5207 56.2299 42.4276 55.4477 43.5957C55.0227 43.163 54.5366 42.7947 54.0049 42.5028C52.5553 41.7043 50.8811 41.5186 49.2914 41.9789C48.1819 42.2991 47.1849 42.9252 46.4145 43.7854L44.7389 38.0028C46.6489 36.828 47.8512 34.7233 47.8512 32.4516V6.61446C47.8516 3.02247 44.9291 0.100006 41.3371 0.100006H18.4914C16.5547 0.159967 16.5561 2.97032 18.4914 3.0297H41.3371C43.3137 3.0297 44.9219 4.6377 44.9219 6.61446V32.4524C44.9219 33.4166 44.5282 34.3268 43.866 34.9899L43.3004 33.0377C42.8399 31.4479 41.7875 30.1326 40.3377 29.3342C38.8879 28.5356 37.2137 28.3498 35.624 28.8102C34.0342 29.2707 32.719 30.3231 31.9205 31.7729C31.1969 33.0869 30.9781 34.5848 31.2862 36.0373H6.51446C4.5377 36.0373 2.92969 34.4293 2.92969 32.4526V6.61446C2.92969 4.6377 4.53789 3.0297 6.51446 3.0297H11.5934C13.5301 2.96973 13.5287 0.159381 11.5934 0.100006H6.51446C2.92246 0.100006 0 3.02247 0 6.61446V32.4524C0 36.0444 2.92246 38.9668 6.51446 38.9668H32.1154L36.8162 55.1907V55.1911L37.3987 57.2014C35.201 59.1081 33.6879 60.4409 32.8961 61.1672C31.6635 62.2979 31.1836 64.0635 31.6735 65.6649L34.1108 73.6348C35.0901 76.837 37.0194 79.5907 39.6924 81.6022C40.2424 82.0963 44.286 85.6374 49.2422 87.5518L49.2407 87.5544C48.9795 88.0256 48.8144 88.5439 48.7549 89.0793C48.6954 89.6147 48.7427 90.1566 48.894 90.6737L50.767 97.1387C50.9155 97.6566 51.1653 98.1399 51.5019 98.5606C51.8384 98.9812 52.2551 99.331 52.7278 99.5895C53.199 99.8506 53.7173 100.016 54.2527 100.075C54.7882 100.135 55.3301 100.087 55.8471 99.936L83.8249 91.8298C85.9967 91.2005 87.2516 88.9217 86.6225 86.7499L84.7497 80.2852ZM83.0102 89.0159L55.0323 97.1223C54.8846 97.1655 54.7298 97.179 54.5769 97.162C54.424 97.1451 54.276 97.0979 54.1414 97.0233C54.0065 96.9495 53.8875 96.8496 53.7914 96.7295C53.6952 96.6094 53.6239 96.4714 53.5815 96.3235L51.7084 89.8587C51.6652 89.711 51.6517 89.5562 51.6687 89.4033C51.6856 89.2504 51.7328 89.1024 51.8075 88.9678C51.8813 88.8329 51.9812 88.7139 52.1014 88.6178C52.2215 88.5217 52.3596 88.4504 52.5075 88.4081L80.4852 80.3018C80.6329 80.2585 80.7877 80.245 80.9406 80.262C81.0936 80.279 81.2416 80.3262 81.3762 80.4008C81.5112 80.4747 81.6302 80.5745 81.7263 80.6946C81.8224 80.8148 81.8938 80.9528 81.9362 81.1006L83.8094 87.5653C83.8953 87.8636 83.8594 88.1838 83.7096 88.4558C83.5598 88.7277 83.3083 88.9291 83.0102 89.0159Z" fill="white"/>
<path d="M19.8603 24.864L20.5295 23.107H25.1428L25.8043 24.8599C26.0893 25.6242 26.9549 25.9972 27.692 25.7131C27.872 25.6451 28.0368 25.5424 28.1771 25.4108C28.3174 25.2792 28.4304 25.1212 28.5096 24.9459C28.5888 24.7707 28.6328 24.5815 28.6389 24.3892C28.645 24.1969 28.6132 24.0053 28.5453 23.8254L24.4529 12.9816C24.3297 12.6569 24.1104 12.3775 23.8244 12.1807C23.5383 11.9838 23.199 11.8788 22.8518 11.8797H22.8498C22.5035 11.8793 22.1653 11.9842 21.88 12.1804C21.5947 12.3766 21.3757 12.6548 21.2521 12.9783L17.1223 23.8215C17.0538 24.0012 17.0214 24.1927 17.027 24.385C17.0325 24.5773 17.0759 24.7667 17.1546 24.9422C17.2334 25.1177 17.3459 25.276 17.4858 25.4081C17.6257 25.5401 17.7902 25.6433 17.97 25.7118C18.1498 25.7802 18.3413 25.8126 18.5336 25.8071C18.7259 25.8015 18.9152 25.7581 19.0908 25.6794C19.2663 25.6007 19.4246 25.4882 19.5566 25.3483C19.6887 25.2084 19.7919 25.0438 19.8603 24.864ZM22.8467 17.023L24.0371 20.1773H21.6453L22.8467 17.023ZM79.3055 17.9748C80.9707 15.397 78.9971 11.8353 75.9125 11.8797H72.7178C72.3293 11.8797 71.9567 12.034 71.682 12.3087C71.4073 12.5834 71.253 12.956 71.253 13.3445V24.3427C71.2531 24.7312 71.4075 25.1037 71.6822 25.3784C71.9568 25.6531 72.3293 25.8074 72.7178 25.8076H72.7242C72.7242 25.8076 75.661 25.7947 76.4705 25.7947C80.6014 25.7929 82.4477 20.575 79.3055 17.9748ZM75.9123 14.8093C77.318 14.8464 77.3176 16.9045 75.9123 16.9412C75.6756 16.9412 75.2276 16.9425 74.7407 16.9443H74.1824V14.8093H75.9123ZM76.4703 22.8648C76.0473 22.8648 75.0457 22.8683 74.1824 22.8717V19.8758L74.7407 19.8736H76.4701C78.4475 19.9369 78.4459 22.8025 76.4703 22.8648Z" fill="black"/>
</svg>
