<svg width="100" height="101" viewBox="0 0 100 101" fill="none" xmlns="http://www.w3.org/2000/svg">
<path d="M47.5688 53.1705V69.7524C47.5688 72.5583 49.8433 74.8327 52.6492 74.8327H93.3429C96.1488 74.8327 98.4232 72.5583 98.4232 69.7524V53.1705H47.5688Z" fill="white"/>
<path d="M86.9463 61.137H59.0101C58.8012 61.137 58.6009 61.054 58.4533 60.9064C58.3056 60.7587 58.2227 60.5584 58.2227 60.3496C58.2227 60.1408 58.3056 59.9405 58.4533 59.7928C58.6009 59.6452 58.8012 59.5622 59.0101 59.5622H86.9463C87.1551 59.5622 87.3554 59.6452 87.503 59.7928C87.6507 59.9405 87.7337 60.1408 87.7337 60.3496C87.7337 60.5584 87.6507 60.7587 87.503 60.9064C87.3554 61.054 87.1551 61.137 86.9463 61.137ZM86.9463 68.4413H59.0101C58.8012 68.4413 58.6009 68.3584 58.4533 68.2107C58.3056 68.063 58.2227 67.8628 58.2227 67.6539C58.2227 67.4451 58.3056 67.2448 58.4533 67.0972C58.6009 66.9495 58.8012 66.8665 59.0101 66.8665H86.9463C87.1551 66.8665 87.3554 66.9495 87.503 67.0972C87.6507 67.2448 87.7337 67.4451 87.7337 67.6539C87.7337 67.8628 87.6507 68.063 87.503 68.2107C87.3554 68.3584 87.1551 68.4413 86.9463 68.4413Z" fill="#218C75"/>
<path d="M98.4237 53.1705V6.56773C98.4237 3.76221 96.1493 1.48741 93.3433 1.48741H52.6497C49.8437 1.48741 47.5693 3.76221 47.5693 6.56773V53.1705H98.4237Z" fill="#10BAAC"/>
<path d="M98.4234 53.9579H47.5687C47.3598 53.9579 47.1595 53.8749 47.0119 53.7273C46.8642 53.5796 46.7812 53.3793 46.7812 53.1705V6.56773C46.7812 3.3323 49.4139 0.700012 52.649 0.700012H93.3427C96.5781 0.700012 99.2104 3.3323 99.2104 6.56773V53.1705C99.2108 53.6051 98.8584 53.9579 98.4234 53.9579ZM48.3561 52.3831H97.636V6.56773C97.636 4.2008 95.71 2.27482 93.3431 2.27482H52.649C50.2816 2.27482 48.3561 4.2008 48.3561 6.56773V52.3831Z" fill="#ADADAD"/>
<path d="M93.3431 75.6205H52.649C49.4135 75.6205 46.7812 72.9882 46.7812 69.7528V53.1705C46.7812 52.9617 46.8642 52.7614 47.0119 52.6137C47.1595 52.466 47.3598 52.3831 47.5687 52.3831H98.4234C98.6322 52.3831 98.8325 52.466 98.9802 52.6137C99.1278 52.7614 99.2108 52.9617 99.2108 53.1705V69.7528C99.2108 72.9882 96.5785 75.6205 93.3431 75.6205ZM48.3561 53.9579V69.7528C48.3561 72.1201 50.282 74.0457 52.649 74.0457H93.3427C95.71 74.0457 97.6356 72.1197 97.6356 69.7528V53.9579H48.3561Z" fill="#218C75"/>
<path d="M77.2095 45.1917H72.0768C66.9363 45.1917 62.7544 41.0099 62.7544 35.8693V15.3382C62.7544 10.1977 66.9363 6.01576 72.0768 6.01576H77.2095C82.3501 6.01576 86.532 10.1977 86.532 15.3382C86.532 16.109 86.2258 16.8482 85.6807 17.3933C85.1357 17.9383 84.3965 18.2445 83.6257 18.2445C82.8549 18.2445 82.1156 17.9383 81.5706 17.3933C81.0256 16.8482 80.7194 16.109 80.7194 15.3382C80.7194 13.4028 79.1449 11.8284 77.2095 11.8284H72.0768C70.1418 11.8284 68.567 13.4028 68.567 15.3382V35.8693C68.567 37.8047 70.1414 39.3792 72.0768 39.3792H77.2095C79.1446 39.3792 80.7194 37.8047 80.7194 35.8697C80.7193 35.0989 81.0255 34.3597 81.5705 33.8146C82.1155 33.2695 82.8547 32.9633 83.6255 32.9632C84.3963 32.9632 85.1355 33.2693 85.6806 33.8143C86.2257 34.3593 86.5319 35.0985 86.532 35.8693C86.532 41.0099 82.3501 45.1917 77.2095 45.1917Z" fill="white"/>
<path d="M77.2097 45.9791H72.0766C66.5022 45.9791 61.9668 41.4437 61.9668 35.8693V15.3382C61.9668 9.76378 66.5022 5.22835 72.0766 5.22835H77.2097C82.7841 5.22835 87.3196 9.76378 87.3196 15.3382C87.3196 17.3748 85.6625 19.0319 83.6258 19.0319C81.5892 19.0319 79.9321 17.3752 79.9321 15.3382C79.9313 14.6164 79.6442 13.9244 79.1338 13.4141C78.6235 12.9037 77.9315 12.6166 77.2097 12.6157H72.0766C71.3549 12.6166 70.6629 12.9037 70.1525 13.4141C69.6421 13.9244 69.355 14.6164 69.3542 15.3382V35.8693C69.355 36.5911 69.6421 37.2831 70.1525 37.7934C70.6629 38.3038 71.3549 38.5909 72.0766 38.5917H77.2097C77.9315 38.5909 78.6235 38.3038 79.1338 37.7934C79.6442 37.2831 79.9313 36.5911 79.9321 35.8693C79.9321 33.8327 81.5892 32.1756 83.6258 32.1756C85.6625 32.1756 87.3196 33.8323 87.3196 35.8689C87.3196 41.4437 82.7841 45.9791 77.2097 45.9791ZM72.0766 6.80315C67.3703 6.80315 63.5416 10.6319 63.5416 15.3382V35.8693C63.5416 40.5756 67.3703 44.4043 72.0766 44.4043H77.2097C81.916 44.4043 85.7447 40.5756 85.7447 35.8693C85.7447 34.7012 84.7944 33.7508 83.6258 33.7508C82.4573 33.7508 81.5069 34.7012 81.5069 35.8697C81.5069 38.239 79.5794 40.1669 77.2097 40.1669H72.0766C69.707 40.1669 67.7794 38.2394 67.7794 35.8697V15.3382C67.7794 12.9685 69.707 11.0409 72.0766 11.0409H77.2097C79.5794 11.0409 81.5069 12.9685 81.5069 15.3382C81.5069 16.5067 82.4573 17.4571 83.6258 17.4571C84.7944 17.4571 85.7447 16.5067 85.7447 15.3382C85.7447 10.6319 81.916 6.80315 77.2097 6.80315H72.0766Z" fill="#218C75"/>
<path d="M76.4618 63.8752V17.2729C76.4618 14.467 74.187 12.1922 71.3814 12.1922H30.6877C27.8818 12.1922 25.6074 14.467 25.6074 17.2729V63.8752H76.4618Z" fill="#218C75"/>
<path d="M76.4615 64.6626H25.6067C25.3979 64.6626 25.1976 64.5797 25.05 64.432C24.9023 64.2843 24.8193 64.0841 24.8193 63.8752V17.2729C24.8193 14.037 27.452 11.4048 30.6874 11.4048H71.3808C74.6162 11.4048 77.2485 14.037 77.2485 17.2729V63.8752C77.2485 64.084 77.1656 64.2842 77.018 64.4319C76.8704 64.5795 76.6702 64.6625 76.4615 64.6626ZM26.3941 63.0878H75.6741V17.2729C75.6741 14.9055 73.7481 12.9796 71.3811 12.9796H30.6874C28.3197 12.9796 26.3941 14.9055 26.3941 17.2729V63.0878Z" fill="#218C75"/>
<path d="M63.0196 27.7044C63.0196 22.5225 58.8038 18.3067 53.622 18.3067H41.9798C41.2029 18.3067 40.4577 18.6154 39.9083 19.1648C39.3589 19.7141 39.0503 20.4593 39.0503 21.2362V54.8697C39.0502 55.2544 39.126 55.6354 39.2732 55.9909C39.4204 56.3463 39.6362 56.6693 39.9082 56.9413C40.1803 57.2134 40.5032 57.4291 40.8587 57.5763C41.2141 57.7235 41.5951 57.7993 41.9798 57.7992H53.622C58.8038 57.7992 63.0196 53.5835 63.0196 48.4016V40.6402C63.0196 38.1355 62.033 35.8587 60.4302 34.1725C62.0326 32.4862 63.0196 30.2091 63.0196 27.7044ZM44.9097 24.1662H53.6223C55.5731 24.1662 57.1605 25.7536 57.1605 27.7044C57.1605 29.6551 55.5731 31.2425 53.6223 31.2425H44.9097V24.1662ZM57.1601 48.4016C57.1601 50.3524 55.5727 51.9398 53.622 51.9398H44.9093V37.102H53.622C55.5727 37.102 57.1601 38.6894 57.1601 40.6402V48.4016Z" fill="white"/>
<path d="M25.6069 63.8752V80.4571C25.6069 83.263 27.8817 85.5374 30.6872 85.5374H71.3809C74.1869 85.5374 76.4613 83.263 76.4613 80.4571V63.8752H25.6069Z" fill="white"/>
<path d="M64.9849 71.8421H37.0486C36.8398 71.8421 36.6395 71.7591 36.4919 71.6115C36.3442 71.4638 36.2612 71.2635 36.2612 71.0547C36.2612 70.8459 36.3442 70.6456 36.4919 70.4979C36.6395 70.3503 36.8398 70.2673 37.0486 70.2673H64.9849C65.1937 70.2673 65.394 70.3503 65.5416 70.4979C65.6893 70.6456 65.7723 70.8459 65.7723 71.0547C65.7723 71.2635 65.6893 71.4638 65.5416 71.6115C65.394 71.7591 65.1937 71.8421 64.9849 71.8421ZM64.9849 79.1456H37.0486C36.8398 79.1456 36.6395 79.0627 36.4919 78.915C36.3442 78.7673 36.2612 78.5671 36.2612 78.3582C36.2612 78.1494 36.3442 77.9491 36.4919 77.8015C36.6395 77.6538 36.8398 77.5708 37.0486 77.5708H64.9849C65.1937 77.5708 65.394 77.6538 65.5416 77.8015C65.6893 77.9491 65.7723 78.1494 65.7723 78.3582C65.7723 78.5671 65.6893 78.7673 65.5416 78.915C65.394 79.0627 65.1937 79.1456 64.9849 79.1456ZM53.6219 58.5866H41.9797C39.9301 58.5866 38.2628 56.9193 38.2628 54.8697V21.2366C38.2628 19.187 39.9301 17.5197 41.9797 17.5197H53.6219C59.238 17.5197 63.8065 22.0886 63.8065 27.7047C63.8092 30.0658 62.9867 32.3535 61.4813 34.1724C62.9867 35.9913 63.8092 38.2791 63.8065 40.6401V48.4015C63.8065 54.0173 59.238 58.5866 53.6219 58.5866ZM41.9797 19.0945C40.7986 19.0945 39.8376 20.0555 39.8376 21.2366V54.8693C39.8376 56.0504 40.7986 57.0114 41.9797 57.0114H53.6219C58.3695 57.0114 62.2317 53.1488 62.2317 48.4012V40.6397C62.2317 38.4283 61.3888 36.3244 59.8593 34.7145C59.7201 34.5682 59.6425 34.374 59.6425 34.172C59.6425 33.9701 59.7201 33.7759 59.8593 33.6295C61.3892 32.02 62.2317 29.9157 62.2317 27.7043C62.2317 22.9567 58.3691 19.0941 53.6219 19.0941L41.9797 19.0945ZM53.6219 52.7271H44.9093C44.7004 52.7271 44.5002 52.6442 44.3525 52.4965C44.2048 52.3488 44.1219 52.1486 44.1219 51.9397V37.1019C44.1219 36.8931 44.2048 36.6928 44.3525 36.5452C44.5002 36.3975 44.7004 36.3145 44.9093 36.3145H53.6219C56.0069 36.3145 57.9471 38.2551 57.9471 40.6401V48.4015C57.9475 50.7866 56.0069 52.7271 53.6219 52.7271ZM45.6967 51.1523H53.6219C54.3511 51.1515 55.0503 50.8614 55.5659 50.3457C56.0815 49.83 56.3715 49.1308 56.3723 48.4015V40.6401C56.3723 39.1232 55.1384 37.8893 53.6219 37.8893H45.6967V51.1523ZM53.6219 32.0299H44.9093C44.7004 32.0299 44.5002 31.9469 44.3525 31.7993C44.2048 31.6516 44.1219 31.4513 44.1219 31.2425V24.1661C44.1219 23.9573 44.2048 23.757 44.3525 23.6093C44.5002 23.4617 44.7004 23.3787 44.9093 23.3787H53.6219C56.0069 23.3787 57.9471 25.3193 57.9471 27.7043C57.9471 30.0893 56.0069 32.0299 53.6219 32.0299ZM45.6967 30.4551H53.6219C55.1388 30.4551 56.3723 29.2212 56.3723 27.7043C56.3723 26.1874 55.1384 24.9535 53.6219 24.9535H45.6967V30.4551Z" fill="#218C75"/>
<path d="M71.3811 86.3252H30.6874C27.4516 86.3252 24.8193 83.6929 24.8193 80.4575V63.8752C24.8193 63.6664 24.9023 63.4661 25.05 63.3185C25.1976 63.1708 25.3979 63.0878 25.6067 63.0878H76.4615C76.6703 63.0878 76.8706 63.1708 77.0182 63.3185C77.1659 63.4661 77.2489 63.6664 77.2489 63.8752V80.4575C77.2489 83.6929 74.6162 86.3252 71.3811 86.3252ZM26.3941 64.6626V80.4575C26.3941 82.8248 28.3201 84.7504 30.6874 84.7504H71.3808C73.7481 84.7504 75.6737 82.8244 75.6737 80.4575V64.6626H26.3941Z" fill="#218C75"/>
<path d="M52.4314 78.25V31.6476C52.4314 28.8417 50.1566 26.5669 47.3511 26.5669H6.65698C3.85107 26.5669 1.57666 28.8417 1.57666 31.6476V78.25H52.4314Z" fill="#10BAAC"/>
<path d="M1.57666 78.25V94.8319C1.57666 97.6378 3.85146 99.9122 6.65698 99.9122H47.3507C50.1566 99.9122 52.431 97.6378 52.431 94.8319V78.25H1.57666Z" fill="white"/>
<path d="M38.8872 68.4827L29.832 34.85C29.6645 34.2278 29.2965 33.6782 28.7851 33.2863C28.2736 32.8944 27.6472 32.6819 27.0029 32.6819C26.3586 32.6819 25.7322 32.8944 25.2207 33.2863C24.7093 33.6782 24.3413 34.2278 24.1738 34.85L15.1187 68.4827C14.9225 69.2311 15.0304 70.0267 15.4187 70.6958C15.807 71.365 16.4442 71.8535 17.1912 72.0546C17.9383 72.2557 18.7346 72.1532 19.4064 71.7693C20.0781 71.3855 20.5708 70.7516 20.7769 70.0059L23.6757 59.2386H30.3305L33.2293 70.0059C33.3968 70.6278 33.7644 71.1773 34.2754 71.5693C34.7865 71.9613 35.4124 72.1741 36.0564 72.1748C36.5063 72.1751 36.9502 72.0717 37.3538 71.8728C37.7573 71.6738 38.1096 71.3846 38.3833 71.0276C38.657 70.6705 38.8449 70.2553 38.9322 69.8139C39.0196 69.3726 39.0042 68.9171 38.8872 68.4827ZM25.2537 53.3791L27.0033 46.8811L28.7529 53.3791H25.2537Z" fill="white"/>
<path d="M40.9532 86.2166H13.017C12.8082 86.2166 12.6079 86.1336 12.4602 85.9859C12.3126 85.8383 12.2296 85.638 12.2296 85.4292C12.2296 85.2203 12.3126 85.02 12.4602 84.8724C12.6079 84.7247 12.8082 84.6418 13.017 84.6418H40.9532C41.1621 84.6418 41.3623 84.7247 41.51 84.8724C41.6577 85.02 41.7406 85.2203 41.7406 85.4292C41.7406 85.638 41.6577 85.8383 41.51 85.9859C41.3623 86.1336 41.1621 86.2166 40.9532 86.2166ZM40.9532 93.5209H13.017C12.8082 93.5209 12.6079 93.4379 12.4602 93.2903C12.3126 93.1426 12.2296 92.9423 12.2296 92.7335C12.2296 92.5247 12.3126 92.3244 12.4602 92.1767C12.6079 92.029 12.8082 91.9461 13.017 91.9461H40.9532C41.1621 91.9461 41.3623 92.029 41.51 92.1767C41.6577 92.3244 41.7406 92.5247 41.7406 92.7335C41.7406 92.9423 41.6577 93.1426 41.51 93.2903C41.3623 93.4379 41.1621 93.5209 40.9532 93.5209ZM52.4312 79.0374H1.57646C1.36763 79.0374 1.16735 78.9545 1.01969 78.8068C0.872021 78.6591 0.789063 78.4589 0.789062 78.25V31.6473C0.789062 28.4118 3.42174 25.7795 6.65678 25.7795H47.3505C50.5859 25.7795 53.2182 28.4118 53.2182 31.6473V78.25C53.2186 78.6851 52.8658 79.0374 52.4312 79.0374ZM2.36387 77.4626H51.6438V31.6473C51.6438 29.2799 49.7178 27.3543 47.3509 27.3543H6.65678C4.28946 27.3543 2.36387 29.2803 2.36387 31.6473V77.4626Z" fill="#ADADAD"/>
<path d="M47.3509 100.7H6.65678C3.42135 100.7 0.789062 98.0677 0.789062 94.8323V78.25C0.789062 78.0412 0.872021 77.8409 1.01969 77.6932C1.16735 77.5455 1.36763 77.4626 1.57646 77.4626H52.4312C52.64 77.4626 52.8403 77.5455 52.988 77.6932C53.1356 77.8409 53.2186 78.0412 53.2186 78.25V94.8323C53.2186 98.0677 50.5859 100.7 47.3509 100.7ZM2.36387 79.0374V94.8323C2.36387 97.1996 4.28985 99.1252 6.65678 99.1252H47.3505C49.7178 99.1252 51.6434 97.1992 51.6434 94.8323V79.0374H2.36387ZM36.0568 72.9618C35.2397 72.9606 34.4457 72.6905 33.7974 72.1932C33.149 71.6959 32.6824 70.9991 32.4694 70.2102L29.7273 60.0256H24.2804L21.5383 70.2102C21.0052 72.1886 18.9599 73.3642 16.9828 72.8335C15.0032 72.3004 13.8265 70.2567 14.3591 68.2775L23.4143 34.6449C23.8505 33.0252 25.3265 31.8941 27.0036 31.8941C28.6808 31.8941 30.1568 33.0252 30.593 34.6449L39.6481 68.2775C40.1808 70.2563 39.004 72.3 37.0253 72.8331C36.7095 72.9184 36.3839 72.9617 36.0568 72.9618ZM23.6769 58.4512H30.3308C30.6867 58.4512 30.9985 58.6901 31.0914 59.0338L33.9902 69.8012C34.1128 70.2558 34.3816 70.6574 34.755 70.944C35.1285 71.2307 35.586 71.3865 36.0568 71.3874C36.3856 71.3871 36.7099 71.3112 37.0048 71.1656C37.2996 71.02 37.557 70.8086 37.7571 70.5477C37.9572 70.2868 38.0947 69.9833 38.1588 69.6609C38.223 69.3384 38.2122 69.0054 38.1273 68.6878L29.0721 35.0551C28.821 34.1216 27.9702 33.4697 27.0036 33.4697C26.0371 33.4697 25.1863 34.1216 24.9351 35.0551L15.88 68.6878C15.7329 69.2364 15.8095 69.821 16.0929 70.3132C16.3763 70.8055 16.8435 71.1652 17.3918 71.3134C18.5296 71.6181 19.7103 70.9421 20.0178 69.8016L22.9162 59.0342C22.9611 58.8669 23.06 58.719 23.1976 58.6136C23.3351 58.5081 23.5036 58.4511 23.6769 58.4512ZM28.7532 54.1665H25.254C25.0091 54.1665 24.778 54.0524 24.6288 53.8583C24.5554 53.7622 24.505 53.6507 24.4815 53.5321C24.458 53.4135 24.4621 53.2912 24.4934 53.1744L26.2426 46.6764C26.2874 46.5089 26.3863 46.3609 26.5238 46.2553C26.6613 46.1498 26.8299 46.0925 27.0032 46.0925C27.1766 46.0925 27.3451 46.1498 27.4827 46.2553C27.6202 46.3609 27.719 46.5089 27.7639 46.6764L29.5135 53.1744C29.5447 53.2911 29.5487 53.4134 29.5252 53.5319C29.5017 53.6504 29.4512 53.7619 29.3778 53.8577C29.3043 53.9536 29.2098 54.0313 29.1015 54.0849C28.9932 54.1384 28.874 54.1664 28.7532 54.1665ZM26.2816 52.5917H27.7261L27.0036 49.9094L26.2816 52.5917Z" fill="#218C75"/>
</svg>
