<svg width="165" height="170" viewBox="0 0 165 170" fill="none" xmlns="http://www.w3.org/2000/svg">
<path d="M164.42 97.5786C164.42 137.32 127.709 169.537 82.4236 169.537C37.1382 169.537 0.427246 137.32 0.427246 97.5786C0.427246 57.8369 37.1382 25.6198 82.4236 25.6198C127.709 25.6198 164.42 57.8369 164.42 97.5786Z" fill="#FAF7F7"/>
<path d="M82.4237 152.661C47.8142 152.661 19.6572 127.951 19.6572 97.5784C19.6572 67.2061 47.8142 42.4963 82.4237 42.4963C117.033 42.4963 145.19 67.2061 145.19 97.5784C145.19 127.951 117.033 152.661 82.4237 152.661Z" fill="#10BAAC"/>
<path d="M82.4232 42.4963C79.7935 42.4963 77.2012 42.6391 74.6558 42.9159C105.614 46.284 129.654 69.5137 129.654 97.5784C129.654 125.643 105.614 148.873 74.6558 152.241C77.2326 152.521 79.8267 152.661 82.4232 152.661C117.032 152.661 145.189 127.951 145.189 97.5784C145.189 67.2061 117.032 42.4963 82.4232 42.4963Z" fill="#10BAAC"/>
<path d="M82.5771 130.378C86.3257 130.378 86.3319 125.265 82.5771 125.265C78.829 125.265 78.8227 130.378 82.5771 130.378Z" fill="#10BAAC"/>
<path d="M82.5843 36.3399C86.3324 36.3399 86.3391 31.2278 82.5843 31.2278C78.8357 31.2278 78.8295 36.3399 82.5843 36.3399Z" fill="#10BAAC"/>
<path d="M46.2155 44.8165C49.964 44.8165 49.9703 39.7044 46.2155 39.7044C42.4669 39.7044 42.4611 44.8165 46.2155 44.8165Z" fill="#10BAAC"/>
<path d="M19.5486 68.1153C23.2972 68.1153 23.303 63.0032 19.5486 63.0032C15.8001 63.0032 15.7938 68.1153 19.5486 68.1153Z" fill="#10BAAC"/>
<path d="M9.72929 99.994C13.4779 99.994 13.4837 94.8819 9.72929 94.8819C5.98072 94.8819 5.9745 99.994 9.72929 99.994Z" fill="#10BAAC"/>
<path d="M19.3883 131.911C23.1369 131.911 23.1431 126.798 19.3883 126.798C15.6397 126.798 15.6339 131.911 19.3883 131.911Z" fill="#10BAAC"/>
<path d="M45.9373 155.312C49.6855 155.312 49.6917 150.2 45.9373 150.2C42.1887 150.2 42.1825 155.312 45.9373 155.312Z" fill="#10BAAC"/>
<path d="M82.2632 163.929C86.0117 163.929 86.018 158.817 82.2632 158.817C78.515 158.817 78.5088 163.929 82.2632 163.929Z" fill="#10BAAC"/>
<path d="M118.632 155.453C122.38 155.453 122.386 150.341 118.632 150.341C114.883 150.341 114.877 155.453 118.632 155.453Z" fill="#10BAAC"/>
<path d="M145.298 132.154C149.047 132.154 149.053 127.042 145.298 127.042C141.55 127.042 141.544 132.154 145.298 132.154Z" fill="#10BAAC"/>
<path d="M155.117 100.275C158.866 100.275 158.872 95.1629 155.117 95.1629C151.369 95.1629 151.363 100.275 155.117 100.275Z" fill="#10BAAC"/>
<path d="M145.458 68.359C149.206 68.359 149.213 63.2469 145.458 63.2469C141.709 63.2469 141.703 68.359 145.458 68.359Z" fill="#10BAAC"/>
<path d="M118.909 44.9572C122.657 44.9572 122.664 39.8451 118.909 39.8451C115.161 39.8451 115.154 44.9572 118.909 44.9572Z" fill="#10BAAC"/>
</svg>
