<svg width="166" height="171" viewBox="0 0 166 171" fill="none" xmlns="http://www.w3.org/2000/svg">
<path d="M165.472 98.1787C165.472 137.92 128.548 170.137 83.0002 170.137C37.4521 170.137 0.52832 137.92 0.52832 98.1787C0.52832 58.4369 37.4521 26.2198 83.0002 26.2198C128.548 26.2198 165.472 58.4369 165.472 98.1787Z" fill="#FAF7F7"/>
<path d="M82.9996 153.261C48.1895 153.261 19.8691 128.551 19.8691 98.1784C19.8691 67.8061 48.1895 43.0963 82.9996 43.0963C117.81 43.0963 146.13 67.8061 146.13 98.1784C146.13 128.551 117.81 153.261 82.9996 153.261Z" fill="#08496D"/>
<path d="M83 43.0963C80.3551 43.0963 77.7477 43.2391 75.1875 43.5158C106.325 46.884 130.505 70.1137 130.505 98.1784C130.505 126.243 106.325 149.473 75.1875 152.841C77.7793 153.121 80.3884 153.261 83 153.261C117.81 153.261 146.13 128.551 146.13 98.1784C146.13 67.8061 117.81 43.0963 83 43.0963Z" fill="#08496D"/>
<path d="M83.155 130.977C86.9253 130.977 86.9315 125.865 83.155 125.865C79.3851 125.865 79.3788 130.977 83.155 130.977Z" fill="#08496D"/>
<path d="M83.1611 36.9399C86.9311 36.9399 86.9377 31.8278 83.1611 31.8278C79.3908 31.8278 79.3846 36.9399 83.1611 36.9399Z" fill="#08496D"/>
<path d="M46.5819 45.4165C50.3522 45.4165 50.3584 40.3045 46.5819 40.3045C42.8116 40.3045 42.8057 45.4165 46.5819 45.4165Z" fill="#08496D"/>
<path d="M19.7603 68.7154C23.5306 68.7154 23.5364 63.6033 19.7603 63.6033C15.9899 63.6033 15.9837 68.7154 19.7603 68.7154Z" fill="#08496D"/>
<path d="M9.88379 100.594C13.6541 100.594 13.66 95.4818 9.88379 95.4818C6.11348 95.4818 6.10723 100.594 9.88379 100.594Z" fill="#08496D"/>
<path d="M19.5995 132.511C23.3698 132.511 23.376 127.399 19.5995 127.399C15.8292 127.399 15.8233 132.511 19.5995 132.511Z" fill="#08496D"/>
<path d="M46.3022 155.912C50.0722 155.912 50.0784 150.8 46.3022 150.8C42.5319 150.8 42.5257 155.912 46.3022 155.912Z" fill="#08496D"/>
<path d="M82.8386 164.53C86.6089 164.53 86.6151 159.417 82.8386 159.417C79.0687 159.417 79.0624 164.53 82.8386 164.53Z" fill="#08496D"/>
<path d="M119.417 156.053C123.187 156.053 123.194 150.941 119.417 150.941C115.647 150.941 115.641 156.053 119.417 156.053Z" fill="#08496D"/>
<path d="M146.239 132.754C150.009 132.754 150.016 127.642 146.239 127.642C142.469 127.642 142.463 132.754 146.239 132.754Z" fill="#08496D"/>
<path d="M156.116 100.875C159.886 100.875 159.892 95.763 156.116 95.763C152.346 95.763 152.339 100.875 156.116 100.875Z" fill="#08496D"/>
<path d="M146.4 68.9592C150.17 68.9592 150.176 63.8471 146.4 63.8471C142.63 63.8471 142.623 68.9592 146.4 68.9592Z" fill="#08496D"/>
<path d="M119.697 45.5573C123.467 45.5573 123.474 40.4452 119.697 40.4452C115.927 40.4452 115.921 45.5573 119.697 45.5573Z" fill="#08496D"/>
</svg>
