<svg width="24" height="25" viewBox="0 0 24 25" fill="none" xmlns="http://www.w3.org/2000/svg">
<path d="M22 21.7246V19.7246C22 17.8608 20.7252 16.2947 19 15.8506M15.5 4.01537C16.9659 4.60876 18 6.04592 18 7.72461C18 9.4033 16.9659 10.8405 15.5 11.4339M17 21.7246C17 19.8608 17 18.929 16.6955 18.1939C16.2895 17.2138 15.5108 16.4351 14.5307 16.0291C13.7956 15.7246 12.8638 15.7246 11 15.7246H8C6.13623 15.7246 5.20435 15.7246 4.46927 16.0291C3.48915 16.4351 2.71046 17.2138 2.30448 18.1939C2 18.929 2 19.8608 2 21.7246M13.5 7.72461C13.5 9.93375 11.7091 11.7246 9.5 11.7246C7.29086 11.7246 5.5 9.93375 5.5 7.72461C5.5 5.51547 7.29086 3.72461 9.5 3.72461C11.7091 3.72461 13.5 5.51547 13.5 7.72461Z" stroke="#667085" stroke-width="2" stroke-linecap="round" stroke-linejoin="round"/>
</svg>
